<svg width="96" height="96" xmlns="http://www.w3.org/2000/svg" xmlns:xlink="http://www.w3.org/1999/xlink" overflow="hidden"><defs><clipPath id="clip0"><rect x="0" y="0" width="96" height="96"/></clipPath></defs><g clip-path="url(#clip0)"><path d="M93.6 26.388 89.538 21.745C88.5297 20.5928 87.307 19.6476 85.938 18.962L85.038 18.513C84.821 16.1082 83.9116 13.8178 82.42 11.919 80.753 9.66038 78.3544 8.04958 75.633 7.361 75.3113 7.87242 75.0572 8.42333 74.877 9 75.9177 9.63898 76.8794 10.3986 77.742 11.263 79.5514 13.0453 80.8658 15.2678 81.556 17.712L79.392 17.458C78.738 15.6568 77.6914 14.0236 76.328 12.677 74.3792 10.6553 71.7892 9.37263 69 9.048 67.493 12.305 68.607 16.917 72.012 20.322 72.328 20.637 72.655 20.927 72.989 21.202 72.835 26.537 69.771 29.002 66.004 29.002 48.004 29.002 39.004 41.09 39.004 56.002L39.004 75C39.004 78.3137 36.3177 81 33.004 81L6.178 81C4.07554 80.965 2.28474 82.5203 2.025 84.607 1.80795 86.8055 3.4142 88.7636 5.61265 88.9807 5.74337 88.9936 5.87464 89 6.006 89L37.471 89C41.9887 89 46.0175 86.1567 47.531 81.9L50.006 74.94 50.006 85C50.006 87.2091 51.7969 89 54.006 89L71.833 89C73.9357 89.0351 75.7268 87.4798 75.987 85.393 76.204 83.1945 74.5978 81.2364 72.3994 81.0193 72.2686 81.0064 72.1374 81 72.006 81L58.006 81 58.006 73.115C58.0109 72.0166 58.6494 71.0198 59.645 70.556 65.458 67.79 71 62.06 72.951 56.018 73.2292 55.1558 73.5801 54.3188 74 53.516 74.3333 52.9057 75.0981 52.6812 75.7084 53.0145 75.8157 53.0731 75.914 53.1471 76 53.234L78.008 55.243 78.008 58.831C77.9731 60.4691 79.2131 61.8542 80.845 62 82.4995 62.0889 83.9128 60.8198 84.0017 59.1653 84.0046 59.1103 84.0061 59.0551 84.006 59L84.006 54.414C84.0058 53.3532 83.5842 52.336 82.834 51.586L79.8 48.55C79.2398 47.9747 79.252 47.0541 79.8273 46.4939 79.8811 46.4416 79.9388 46.3934 80 46.35 82.6767 44.436 84.1882 41.2856 84.006 38L84.006 33.153C84.006 32.6007 84.4537 32.153 85.006 32.153 85.0532 32.153 85.1003 32.1563 85.147 32.163L87.27 32.463C89.5852 32.7937 91.9028 31.8761 93.364 30.05L93.664 29.675C94.4412 28.7083 94.4142 27.3237 93.6 26.388Z"/></g></svg>