<svg width="96" height="96" xmlns="http://www.w3.org/2000/svg" xmlns:xlink="http://www.w3.org/1999/xlink" overflow="hidden"><defs><clipPath id="clip0"><rect x="0" y="0" width="96" height="96"/></clipPath></defs><g clip-path="url(#clip0)"><path d="M40.613 32C41.8806 31.9988 43.1317 31.7117 44.273 31.16L48.044 36.76 51.987 31.175C56.2161 33.1885 61.2767 31.3924 63.2901 27.1633 63.9025 25.8771 64.1811 24.4573 64.1 23.035 63.8394 18.3478 59.8285 14.7593 55.1413 15.0199 52.1754 15.1848 49.5108 16.886 48.113 19.507 45.9077 15.3628 40.7605 13.791 36.6163 15.9963 32.4721 18.2015 30.9003 23.3488 33.1055 27.493 34.5822 30.2679 37.4697 32.0014 40.613 32ZM48.083 33.238 45.967 30.094C46.8474 29.3782 47.5766 28.4944 48.112 27.494 48.654 28.5052 49.3936 29.3972 50.287 30.117ZM55.611 17C59.2009 17 62.111 19.9102 62.111 23.5 62.111 27.0899 59.2008 30 55.6109 30 52.0285 30 49.1215 27.1014 49.111 23.519L49.111 23.481C49.1259 19.9004 52.0304 17.0044 55.611 17ZM40.3 17.008C43.8891 16.8379 46.9366 19.6095 47.1068 23.1987 47.1112 23.2927 47.1136 23.3868 47.114 23.481L47.114 23.519C47.1037 27.1088 44.1853 30.0106 40.5954 30.0004 37.0056 29.9901 34.1038 27.0717 34.1141 23.4818 34.124 20.0212 36.8435 17.1752 40.3 17.008Z"/><path d="M40.408 25.992C41.7841 26.1051 42.9913 25.0813 43.1045 23.7053 43.2176 22.3292 42.1938 21.122 40.8177 21.0088 39.4417 20.8957 38.2344 21.9195 38.1213 23.2955 38.1101 23.4308 38.1101 23.5667 38.121 23.702 38.2197 24.9224 39.1878 25.8917 40.408 25.992Z"/><path d="M55.406 25.992C56.7821 26.1051 57.9893 25.0813 58.1025 23.7053 58.2156 22.3292 57.1918 21.122 55.8157 21.0088 54.4397 20.8957 53.2324 21.9195 53.1193 23.2955 53.1081 23.4308 53.1081 23.5667 53.119 23.702 53.2177 24.9224 54.1858 25.8917 55.406 25.992Z"/><path d="M27.163 19.252C26.434 21.1868 26.0436 23.2327 26.009 25.3 26.0119 27.892 26.5823 30.4519 27.68 32.8 23.9031 39.2222 21.9416 46.5498 22.005 54 22.005 65.024 26.045 74.826 32.283 81.042 32.1928 81.023 32.1017 81.009 32.01 81 30.3531 81 29.01 82.3431 29.01 84 29.01 85.164 29.945 89 32.01 89 32.5977 88.9751 33.143 88.6872 33.495 88.216 34.0725 89.0454 35.2131 89.2496 36.0425 88.6721 36.2264 88.5441 36.3852 88.3834 36.511 88.198 36.864 88.6781 37.4156 88.9723 38.011 88.998 39.17 88.998 39.974 87.788 40.455 86.522 45.3003 88.4893 50.7217 88.4893 55.567 86.522 56.048 87.79 56.852 89 58.014 89 58.6013 88.9748 59.1462 88.687 59.498 88.216 60.075 89.0444 61.2144 89.2482 62.0428 88.6712 62.2203 88.5476 62.3744 88.3935 62.498 88.216 62.8573 88.6948 63.4156 88.9835 64.014 89 66.08 89 67.014 85.164 67.014 84 67.014 82.3431 65.6709 81 64.014 81 63.917 81.0087 63.8206 81.0224 63.725 81.041 69.964 74.828 74.005 65.025 74.005 54 74.062 46.6449 72.1495 39.4085 68.466 33.042 69.6155 30.6584 70.2133 28.0464 70.215 25.4 70.2309 23.3221 69.8431 21.261 69.073 19.331L69.113 18.65 69.513 10.675 69.51 10.6C69.4297 9.83269 69.0259 9.13607 68.4 8.685 67.8009 8.2408 67.0585 8.03418 66.316 8.105L58.54 10.38C55.0777 9.66531 51.5468 9.33663 48.012 9.4 44.4817 9.34757 40.956 9.6758 37.496 10.379L30.111 8.047 29.911 8.005C28.3444 7.83464 26.9274 8.94345 26.716 10.505L26.709 10.58 27.109 18.505ZM72.005 54C72.1075 61.6497 69.9167 69.1547 65.715 75.548 55.5898 70.9814 49.0597 60.9272 49.005 49.82 49.0218 48.1925 49.1662 46.5689 49.437 44.964 56.6365 44.7109 63.2827 41.0359 67.325 35.073 70.44 40.8926 72.0489 47.3993 72.005 54ZM29.105 18.45 28.71 10.644C28.8278 10.2477 29.1967 9.97964 29.61 9.99L29.618 9.99 37.249 12.4 37.728 12.375C41.1094 11.6708 44.5585 11.3438 48.012 11.4 51.4605 11.3325 54.9055 11.659 58.28 12.373L58.395 12.4 66.595 10.091C66.8153 10.0951 67.0294 10.1648 67.21 10.291 67.3618 10.3996 67.4685 10.56 67.51 10.742L67.11 18.601 67.1 19.807C67.855 21.574 68.2347 23.4786 68.215 25.4 68.215 35.105 59.197 43 48.115 43 37.033 43 28.015 35.06 28.015 25.3 28.0516 23.3619 28.4374 21.4462 29.154 19.645ZM28.8 34.87C32.7629 40.8742 39.3593 44.6199 46.546 44.947 46.8427 46.6088 46.9963 48.293 47.005 49.981 46.9382 61.0515 40.4462 71.0748 30.371 75.663 26.1175 69.2471 23.8988 61.6971 24.005 54 23.9591 47.3204 25.6089 40.7383 28.8 34.87ZM32.6 85.8C32.442 86.1843 32.2407 86.5493 32 86.888 31.9967 86.8924 31.9904 86.8933 31.986 86.89 31.9852 86.8894 31.9846 86.8888 31.984 86.888 31.4279 86.0196 31.0934 85.0279 31.01 84 31.01 83.4477 31.4577 83 32.01 83 32.3207 83.0147 32.6099 83.1631 32.803 83.407L33.394 83.999ZM35.6 85.8C35.4441 86.1834 35.2455 86.548 35.008 86.887 35.0053 86.8911 34.9997 86.8923 34.9955 86.8895 34.9945 86.8889 34.9937 86.888 34.993 86.887 34.7621 86.5632 34.5767 86.2092 34.442 85.835L33.687 83.947 34.221 83.413C34.5347 82.9753 35.1438 82.8748 35.5815 83.1885 35.6681 83.2505 35.7439 83.3264 35.806 83.413L36.397 84.005ZM38.038 86.891C38.0347 86.8954 38.0284 86.8963 38.024 86.893 38.0232 86.8924 38.0226 86.8918 38.022 86.891 37.7832 86.5511 37.5839 86.1851 37.428 85.8L36.628 84 37.219 83.408C37.4116 83.1639 37.7004 83.0151 38.011 83 38.5633 83 39.011 83.4477 39.011 84 38.9266 85.028 38.5915 86.0196 38.035 86.888ZM55.013 84C55.0165 84.1939 55.0329 84.3873 55.062 84.579 50.5521 86.4676 45.4733 86.4694 40.962 84.584 40.9919 84.3907 41.0086 84.1956 41.012 84 41.012 82.3431 39.6689 81 38.012 81 37.4815 81.0026 36.9622 81.1525 36.512 81.433 36.1167 81.198 35.671 81.0609 35.212 81.033 33.8826 79.9103 32.6664 78.66 31.581 77.3 39.713 73.4377 45.7288 66.1871 48.024 57.482 50.3533 66.1547 56.3844 73.3611 64.511 77.182 63.4067 78.5866 62.1638 79.8765 60.801 81.032 60.3464 81.0615 59.9053 81.1986 59.514 81.432 59.0637 81.1517 58.5444 81.0018 58.014 80.999 56.3572 80.9984 55.0136 82.3411 55.013 83.998 55.013 83.9987 55.013 83.9993 55.013 84ZM58.6 85.8C58.4435 86.185 58.2439 86.551 58.005 86.891 58.0023 86.8951 57.9967 86.8963 57.9925 86.8935 57.9915 86.8929 57.9907 86.892 57.99 86.891 57.4323 86.022 57.0968 85.0292 57.013 84 57.013 83.4477 57.4607 83 58.013 83 58.3234 83.0148 58.6122 83.1632 58.805 83.407L59.4 84ZM61.6 85.8C61.4443 86.1833 61.246 86.5479 61.009 86.887 61.0057 86.8914 60.9994 86.8923 60.995 86.889 60.9942 86.8884 60.9936 86.8878 60.993 86.887 60.7625 86.5629 60.5771 86.209 60.442 85.835L59.687 83.947 60.221 83.413C60.5352 82.975 61.145 82.8747 61.583 83.189 61.6693 83.2509 61.745 83.3266 61.807 83.413L62.4 84ZM64.025 86.9C64.0223 86.9041 64.0167 86.9053 64.0125 86.9025 64.0115 86.9019 64.0107 86.901 64.01 86.9 63.7694 86.5728 63.5783 86.2119 63.443 85.829L62.688 83.941 63.222 83.407C63.4147 83.1631 63.7035 83.0147 64.014 83 64.5663 83 65.014 83.4477 65.014 84 64.9299 85.0337 64.59 86.0303 64.025 86.9Z"/></g></svg>