<svg width="96" height="96" xmlns="http://www.w3.org/2000/svg" xmlns:xlink="http://www.w3.org/1999/xlink" overflow="hidden"><defs><clipPath id="clip0"><rect x="0" y="0" width="96" height="96"/></clipPath></defs><g clip-path="url(#clip0)"><path d="M76 7 20 7C17.7909 7 16 8.79086 16 11L16 85C16 87.2091 17.7909 89 20 89L76 89C78.2091 89 80 87.2091 80 85L80 11C80 8.79086 78.2091 7 76 7ZM74 13 74 22 68 22C68 19.7909 66.2091 18 64 18 61.7909 18 60 19.7909 60 22L58 22C58 19.7909 56.2091 18 54 18 51.7909 18 50 19.7909 50 22L36 22C36 19.7909 34.2091 18 32 18 29.7909 18 28 19.7909 28 22L22 22 22 13ZM64 66C61.7909 66 60 67.7909 60 70L58 70C58 67.7909 56.2091 66 54 66 51.7909 66 50 67.7909 50 70L36 70C36 67.7909 34.2091 66 32 66 29.7909 66 28 67.7909 28 70L22 70 22 58 28 58C28 60.2091 29.7909 62 32 62 34.2091 62 36 60.2091 36 58L38 58C38 60.2091 39.7909 62 42 62 44.2091 62 46 60.2091 46 58L60 58C60 60.2091 61.7909 62 64 62 66.2091 62 68 60.2091 68 58L74 58 74 70 68 70C68 67.7909 66.2091 66 64 66ZM68 54C68 51.7909 66.2091 50 64 50 61.7909 50 60 51.7909 60 54L46 54C46 51.7909 44.2091 50 42 50 39.7909 50 38 51.7909 38 54L36 54C36 51.7909 34.2091 50 32 50 29.7909 50 28 51.7909 28 54L22 54 22 42 40 42C40 44.2091 41.7909 46 44 46 46.2091 46 48 44.2091 48 42L50 42C50 44.2091 51.7909 46 54 46 56.2091 46 58 44.2091 58 42L60 42C60 44.2091 61.7909 46 64 46 66.2091 46 68 44.2091 68 42L74 42 74 54ZM68 38C68 35.7909 66.2091 34 64 34 61.7909 34 60 35.7909 60 38L58 38C58 35.7909 56.2091 34 54 34 51.7909 34 50 35.7909 50 38L48 38C48 35.7909 46.2091 34 44 34 41.7909 34 40 35.7909 40 38L22 38 22 26 28 26C28 28.2091 29.7909 30 32 30 34.2091 30 36 28.2091 36 26L50 26C50 28.2091 51.7909 30 54 30 56.2091 30 58 28.2091 58 26L60 26C60 28.2091 61.7909 30 64 30 66.2091 30 68 28.2091 68 26L74 26 74 38ZM22 83 22 74 28 74C28 76.2091 29.7909 78 32 78 34.2091 78 36 76.2091 36 74L50 74C50 76.2091 51.7909 78 54 78 56.2091 78 58 76.2091 58 74L60 74C60 76.2091 61.7909 78 64 78 66.2091 78 68 76.2091 68 74L74 74 74 83Z"/></g></svg>