<svg width="96" height="96" xmlns="http://www.w3.org/2000/svg" xmlns:xlink="http://www.w3.org/1999/xlink" overflow="hidden"><defs><clipPath id="clip0"><rect x="0" y="0" width="96" height="96"/></clipPath></defs><g clip-path="url(#clip0)"><path d="M43.011 65 40.511 65C42.4336 61.9194 41.4948 57.8636 38.4142 55.941 37.941 55.6457 37.4322 55.4118 36.9 55.245 36.3715 55.0843 35.8127 55.3825 35.652 55.911 35.4913 56.4395 35.7895 56.9983 36.318 57.159 38.2147 57.7552 39.5064 59.5118 39.51 61.5 39.5234 62.9626 38.821 64.3394 37.629 65.187 37.18 65.5086 37.0767 66.1333 37.3983 66.5823 37.5858 66.8441 37.8879 66.9996 38.21 67L43.01 67C44.1146 67 45.01 67.8954 45.01 69 45.01 70.1046 44.1146 71 43.01 71L32.51 71C26.1647 70.9693 20.0932 68.4113 15.639 63.892 11.3221 59.5845 8.9299 53.7149 9.006 47.617 9.26009 35.0825 19.472 25.042 32.009 25 32.5613 25 33.009 24.5523 33.009 24 33.009 23.4477 32.5613 23 32.009 23 18.3838 23.0514 7.28792 33.9636 7.009 47.586 6.92113 54.2211 9.51971 60.6099 14.214 65.3 19.0467 70.199 25.6325 72.97 32.514 73L43.014 73C45.2231 73 47.014 71.2091 47.014 69 47.014 66.7909 45.2231 65 43.014 65Z"/><path d="M67 66.9C68.1101 66.8746 69.0429 67.7289 69.115 68.837 69.1772 69.9133 68.3552 70.8362 67.2789 70.8984 67.2243 70.9016 67.1696 70.9024 67.115 70.901L50.005 70.901C49.4527 70.901 49.005 71.3487 49.005 71.901 49.005 72.4533 49.4527 72.901 50.005 72.901L67.113 72.901C69.2949 72.93 71.0872 71.1848 71.1162 69.0029 71.1172 68.9296 71.1161 68.8563 71.113 68.783 71.0259 66.9323 69.6963 65.3755 67.882 65L87.1 54.576C88.2256 53.9394 88.974 52.798 89.109 51.512 89.113 51.4755 89.115 51.4388 89.115 51.402 89.0322 48.9619 87.2835 46.8986 84.89 46.417L67.134 43.26 61.767 39.069C61.2247 38.7023 60.5387 38.62 59.925 38.848 59.2929 39.081 58.814 39.6076 58.642 40.259L57.814 43.571C52.6447 40.0754 46.5786 38.1414 40.34 38 29.379 37.673 20.04 45.677 19.112 56.2 18.8579 58.8448 19.1434 61.5137 19.951 64.045 20.0944 64.5783 20.643 64.8945 21.1763 64.7511 21.7097 64.6077 22.0258 64.0591 21.8824 63.5257 21.8751 63.4985 21.8666 63.4715 21.857 63.445 21.1304 61.1687 20.8728 58.7687 21.1 56.39 21.94 46.908 30.4 39.708 40.269 40 46.879 40.271 53.028 42.352 57.289 45.705L56.9 47.372C56.7751 47.909 57.1083 48.4458 57.645 48.572 57.7203 48.5903 57.7975 48.5993 57.875 48.599 58.3386 48.5989 58.7414 48.2802 58.848 47.829L60.593 40.7C60.5945 40.6947 60.6 40.6916 60.6053 40.6931 60.6067 40.6935 60.6079 40.6941 60.609 40.695L66.097 44.985C66.2256 45.0872 66.3774 45.1559 66.539 45.185L84.51 48.38C85.9412 48.678 87.002 49.8881 87.11 51.346 87.0342 51.9638 86.6733 52.5105 86.135 52.823L63.86 64.9 59.005 64.9C58.4527 64.9 58.005 65.3477 58.005 65.9 58.005 66.4523 58.4527 66.9 59.005 66.9Z"/><path d="M72.004 49.5C72.004 50.3284 71.3324 51 70.504 51 69.6756 51 69.004 50.3284 69.004 49.5 69.004 48.6716 69.6756 48 70.504 48 71.3324 48 72.004 48.6716 72.004 49.5Z"/></g></svg>