<svg width="96" height="96" xmlns="http://www.w3.org/2000/svg" xmlns:xlink="http://www.w3.org/1999/xlink" overflow="hidden"><defs><clipPath id="clip0"><rect x="0" y="0" width="96" height="96"/></clipPath></defs><g clip-path="url(#clip0)"><path d="M70.88 44.88C77.75 43 83.69 38 83.69 34.69 83.69 30 71.75 26.25 71.75 26.25L71 26.08C70.75 20 61.75 17 56.52 23.54L54.52 24 54.52 24C34.11 27.57 15.41 43 12.7 63.47 12.2936 66.5874 14.0154 69.5934 16.91 70.82L22.59 73.22 21.81 74.22C20.9382 75.347 21.145 76.9675 22.2721 77.8393 22.4806 78.0006 22.7126 78.129 22.96 78.22L22.96 78.22C27.4675 79.4055 32.1092 80.0038 36.77 80L51.77 80 46.77 76 51.77 72 39.81 72C45.0568 67.951 46.0278 60.4154 41.9788 55.1686 39.7177 52.2386 36.231 50.5158 32.53 50.5 31.4825 50.4787 30.4377 50.6135 29.43 50.9 28.6292 51.0933 27.8233 50.6008 27.63 49.8 27.4367 48.9992 27.9292 48.1933 28.73 48 30.0069 47.6863 31.3153 47.5185 32.63 47.5 40.9143 47.5 47.63 54.2157 47.63 62.5 47.6136 64.2828 47.2748 66.0479 46.63 67.71 50.076 65.0909 53.1302 61.9929 55.7 58.51L55.7 62C55.7002 62.5111 55.831 63.0136 56.08 63.46L61.08 72.46C61.6181 73.4262 62.6442 74.0181 63.75 74L77.75 74 74.75 71 77.75 68 65.52 68 61.75 61.22 61.75 52C63.5949 48.3968 66.9359 45.7914 70.88 44.88Z"/></g></svg>