<svg width="96" height="96" xmlns="http://www.w3.org/2000/svg" xmlns:xlink="http://www.w3.org/1999/xlink" overflow="hidden"><defs><clipPath id="clip0"><rect x="0" y="0" width="96" height="96"/></clipPath></defs><g clip-path="url(#clip0)"><path d="M93.9081 30.2324C93.6038 28.4148 92.5578 26.8053 91.0204 25.7891L87.9863 23.7656C85.855 22.3492 83.4293 21.4365 80.893 21.0967L78.0732 20.7227 74.3671 18.8613C71.9486 17.6465 69.0033 18.6222 67.7884 21.0407 67.7799 21.0577 67.7714 21.0747 67.7631 21.0918L66.1938 24.3066C65.6534 25.3962 64.4986 26.0411 63.2875 25.9297L60.394 25.6455C55.7138 25.1745 51.0209 26.4094 47.1786 29.123 40.1098 34.1328 38.536 39.0742 35.6791 48.0449 35.2177 49.4941 34.7216 51.0517 34.162 52.7353 33.495 54.7392 32.9701 56.3583 32.558 57.6669 31.8718 59.8875 29.5998 61.2131 27.329 60.7177 21.207 59.418 14.8725 58.2588 10.62 59.5976 7.39935 60.5078 4.66939 62.6549 3.0258 65.5703 1.88203 67.7658 1.68722 70.3339 2.48673 72.6768 3.97013 77.1953 8.42228 78.9863 13.0551 78.9863 14.6168 78.9822 16.1723 78.7897 17.6879 78.4131 21.4179 77.4893 29.3505 74.2832 33.9325 70.9062L35.1498 70.0205C35.644 70.2734 36.4482 70.6943 37.2758 71.1279 38.3491 71.6904 39.4618 72.2734 40.0063 72.5459 43.0863 74.0816 46.4802 74.8828 49.9218 74.8867L79.2109 74.8867C79.763 74.8869 80.2107 74.4394 80.2109 73.8873 80.2109 73.8871 80.2109 73.8869 80.2109 73.8867L80.2109 72C80.2076 69.2399 77.9709 67.0032 75.2109 67L71.3197 67C74.0529 64.2826 76.4682 61.2632 78.519 58L81.5937 58 82.5424 58.8438C84.0811 60.3842 86.5772 60.3856 88.1176 58.847 88.1893 58.7753 88.2582 58.701 88.3242 58.624 89.6561 56.9953 89.5179 54.6178 88.0063 53.1543L85.9814 51.1299C85.2439 50.3878 84.24 49.9718 83.1938 49.9746L82.0717 49.9746C82.4745 48.793 82.8583 47.5186 83.2235 46.2881 83.5432 45.2217 84.2172 44.2964 85.1342 43.6651L86.7626 42.544C87.4902 42.0439 88.1313 41.4284 88.6606 40.7217L88.7212 40.6412 88.7212 43C88.7212 43.5523 89.1689 44 89.7212 44 90.2734 44 90.7212 43.5523 90.7212 43L90.7212 37.9744 92.664 35.3838C93.7758 33.9138 94.2265 32.0478 93.9081 30.2324ZM72.0048 56C71.4525 56 71.0048 56.4477 71.0048 57 71.0048 57.5523 71.4525 58 72.0048 58L76.1645 58C73.8801 61.4002 71.1816 64.5032 68.1313 67.2373 67.71 67.5945 67.6581 68.2255 68.0153 68.6468 68.2054 68.8709 68.4844 69.0001 68.7782 69L75.2109 69C76.867 69.0018 78.209 70.3439 78.2109 72L78.2109 72.8867 49.9218 72.8867C46.7906 72.8833 43.7028 72.1543 40.9008 70.7568 40.3627 70.4883 39.2641 69.9121 38.204 69.3565 37.769 69.1289 37.3397 68.9043 36.9579 68.7051L37.9779 67.9629C38.4245 67.6379 38.5231 67.0125 38.1981 66.5659 37.8732 66.1194 37.2477 66.0208 36.8012 66.3457L32.7509 69.293C27.9789 72.4876 22.7332 74.9102 17.207 76.4717 11.9838 77.7666 5.90128 76.666 4.38712 72.0527 3.75901 70.2173 3.90987 68.2047 4.8046 66.4834 6.20393 64.0439 8.50943 62.2551 11.2201 61.5058 12.5006 61.1441 13.8279 60.9759 15.1581 61.0068 19.1215 61.1798 23.0585 61.7385 26.9135 62.6748 30.1923 63.3825 33.4689 61.4703 34.4658 58.2676 34.8754 56.9678 35.3974 55.3584 36.0595 53.3662 36.6225 51.6739 37.121 50.1084 37.5849 48.6524 40.3993 39.8135 41.8119 35.377 48.3349 30.754 51.7844 28.3186 55.9975 27.2113 60.1987 27.6358L63.0927 27.92C65.1346 28.1109 67.0827 27.0226 67.9907 25.1836L69.5605 21.9688C70.2626 20.529 71.9989 19.931 73.4387 20.6331 73.449 20.6382 73.4594 20.6433 73.4697 20.6485L77.3261 22.585C77.4256 22.6349 77.5327 22.6679 77.643 22.6827L80.6303 23.0791C82.8639 23.3783 85.0001 24.1821 86.8769 25.4297L89.911 27.4532C92.0711 28.8929 92.6551 31.8112 91.2153 33.9713 91.167 34.0438 91.1166 34.1149 91.0644 34.1846L87.061 39.5224C86.6615 40.0548 86.178 40.5186 85.6294 40.8955L84 42.0175C82.7066 42.9087 81.7564 44.2148 81.3066 45.7197 80.8071 47.4013 80.2729 49.165 79.7153 50.6161 79.5173 51.1317 79.7747 51.7101 80.2903 51.9081 80.4047 51.952 80.5263 51.9746 80.6489 51.9745L83.1938 51.9745C83.7087 51.9763 84.2022 52.1809 84.5674 52.5439L86.5922 54.5683C87.3554 55.296 87.4482 56.4817 86.8076 57.3193 86.085 58.1365 84.8369 58.2132 84.0197 57.4907 83.9838 57.4589 83.949 57.4258 83.9155 57.3916L82.6396 56.2539C82.4566 56.0901 82.2196 55.9997 81.974 56Z"/><path d="M83.0028 27.5C83.0028 28.3284 82.3312 29 81.5028 29 80.6744 29 80.0028 28.3284 80.0028 27.5 80.0028 26.6716 80.6744 26 81.5028 26 82.3312 26 83.0028 26.6716 83.0028 27.5Z"/></g></svg>