<svg width="96" height="96" xmlns="http://www.w3.org/2000/svg" xmlns:xlink="http://www.w3.org/1999/xlink" overflow="hidden"><defs><clipPath id="clip0"><rect x="0" y="0" width="96" height="96"/></clipPath></defs><g clip-path="url(#clip0)"><path d="M87.914 27.5034 76.5141 16.1C75.7983 15.3971 74.9443 14.8504 74.0063 14.4945L74.0063 11.5054C74.0078 11.1079 73.8494 10.7264 73.5668 10.4468 73.2846 10.1497 72.8878 9.98894 72.4784 10.0059 70.019 10.0566 68.0417 12.0462 68.0063 14.5059L68.0063 14.7545C65.1308 16.1631 62.4 19.417 59.52 22.8481 55.1279 28.0811 50.15 34.0122 44.0054 34.0122L27.0029 34.0022C24.6468 33.9999 22.3428 34.6959 20.382 36.0022L16.0038 36.0022C11.0357 36.0081 7.0097 40.0341 7.0038 45.0022L7.0038 57.0078C7.00379 57.5601 7.4515 58.0078 8.00379 58.0078 8.14513 58.0078 8.28488 57.9779 8.4138 57.9199L15.0043 54.9624 15.0043 60.0386 12.9267 60.0781C10.7526 60.1314 9.01477 61.9034 9.0038 64.0781L9.0058 84.0024C9.00568 84.2674 9.1109 84.5216 9.2983 84.709L11.2958 86.709C11.4833 86.8969 11.7378 87.0025 12.0033 87.0024L18.0033 87.0024C18.5556 87.0024 19.0033 86.5547 19.0033 86.0024L19.0033 84.6577C19.0071 83.3321 18.4807 82.0599 17.5414 81.1245L17.0063 80.5884 17.0033 69.0024 17.349 69.0024C18.6739 69.0062 19.9453 68.4806 20.8808 67.5424L27.3168 61.12C27.8222 61.3451 28.3334 61.5517 28.8432 61.7362 29.5852 62.0059 30.3411 62.2354 31.1078 62.4237 32.7104 62.8176 34.3545 63.0178 36.0048 63.0199L51.0048 63.0199 51.0048 84.0024C51.0047 84.2674 51.1099 84.5216 51.2973 84.709L53.2948 86.709C53.4823 86.8969 53.7368 87.0025 54.0023 87.0024L60.0023 87.0024C60.5546 87.0024 61.0023 86.5547 61.0023 86.0024L61.0023 84.6577C61.0061 83.3321 60.4797 82.0599 59.5404 81.1245L59.0053 80.5884 59.0053 61.8584C59.453 61.7656 59.8773 61.6465 60.2826 61.5284 61.274 61.2119 62.1976 60.713 63.0058 60.0574L63.0058 81.0024C63.0056 81.2674 63.1108 81.5216 63.2982 81.709L64.1254 82.5376C64.6888 83.099 65.0045 83.8623 65.0023 84.6576L65.0023 85.0028 63.0023 85.0028C62.45 85.0028 62.0023 85.4505 62.0023 86.0028 62.0023 86.5551 62.45 87.0028 63.0023 87.0028L66.0023 87.0028C66.5546 87.0028 67.0023 86.5551 67.0023 86.0028L67.0023 84.6572C67.006 83.3317 66.4797 82.0598 65.5404 81.1245L65.0058 80.5889 65.0058 58.0632C66.3019 56.3082 67.0015 54.1841 67.0023 52.0024 67.0023 40.4524 70.5323 32.8604 72.6586 32.0781L73.4986 32.9181C73.7444 33.1613 74.0085 33.3853 74.2886 33.5881 74.3325 33.6202 74.4333 33.6921 74.4333 33.6921 75.5952 34.5205 76.9794 34.9804 78.4061 35.0121L80.5945 35.0121C82.5726 36.8887 85.6858 36.8476 87.6136 34.9193L87.9358 34.5966C89.7908 32.5927 89.7813 29.4958 87.914 27.5034ZM63.1368 21.6809C64.4465 25.8955 66.3383 29.9066 68.7573 33.598 67.9551 35.0971 67.3146 36.6773 66.8465 38.3119 64.1003 34.0854 62.0104 29.4672 60.6479 24.6145 60.7826 24.4545 60.9186 24.293 61.0522 24.1338 61.7564 23.2947 62.4508 22.4685 63.1368 21.6809ZM65.2785 46.5209C62.4711 43.273 59.0385 37.8622 56.5428 29.2609 57.4261 28.3442 58.2806 27.3866 59.1128 26.4218 60.6646 31.5815 63.0553 36.4506 66.1889 40.8337 65.772 42.7095 65.468 44.6086 65.2785 46.5208ZM54.9271 30.8456C57.8963 40.5056 62.0377 46.1626 65.0649 49.2402L65.0749 49.2302C65.0289 50.1428 65.0025 51.0673 65.0025 52.0026 65.0029 53.5863 64.5463 55.1364 63.6875 56.467 60.7961 52.9421 56.1083 45.6029 52.9321 32.5446 53.6145 32.0167 54.279 31.448 54.9271 30.8456ZM47.7543 35.4072C42.8868 48.9338 43.146 57.5443 43.5866 61.02L40.6666 61.02C39.8488 58.2725 38.4916 50.36 43.372 36.0123L44.0044 36.0123C45.2784 36.0095 46.544 35.8052 47.7543 35.4072ZM37.9886 50.2737C37.0707 48.25 35.5335 43.7568 35.1848 36.0071L41.2611 36.0106C39.6605 40.6334 38.5633 45.4155 37.9886 50.2737ZM33.1833 36.006C33.2885 38.8687 33.6127 41.7191 34.1533 44.5322 31.2963 41.0379 27.5919 38.3336 23.3933 36.6772 24.5442 36.2308 25.768 36.002 27.0024 36.0024ZM9.0033 55.4629 9.0033 45.0029C9.00815 41.1389 12.1393 38.0077 16.0033 38.0029L21.1933 38.0029C24.1219 38.8987 36.9789 43.8169 38.2395 61.02L36.4326 61.02C32.4026 45.564 19.862 42.1862 17.9626 41.7619 18.0245 41.6305 18.0732 41.4951 18.141 41.3657 18.3975 40.8765 18.2088 40.2721 17.7197 40.0156 17.2305 39.7592 16.6261 39.9478 16.3696 40.437 15.4727 42.1552 15.004 44.0647 15.0033 46.0029L15.0033 52.7713ZM15.0033 68.9893 15.0049 76.4045C13.7261 75.8653 12.2837 75.8653 11.0049 76.4045L11.0041 68.9978C11.0068 68.5278 11.8458 67.8327 13.0046 67.8327 14.1566 67.8325 14.9911 68.5193 15.0031 68.9893ZM17.0033 85.0024 12.4174 85.0024 11.0053 83.5884 11.0048 78.9939C11.0129 78.5864 11.789 78 13.0048 78 14.2265 78 15.0058 78.5928 15.0058 79.0005L15.0058 79.0005 15.0063 81.0024C15.0063 81.2674 15.1115 81.5215 15.2988 81.709L16.1264 82.5376C16.6898 83.099 17.0055 83.8623 17.0033 84.6576ZM19.4672 66.126C18.9063 66.6892 18.1434 67.0048 17.3485 67.0024L16.0585 67.0024C15.2254 66.2392 14.1335 65.821 13.0038 65.8324 12.3115 65.8342 11.6282 65.9894 11.0031 66.2868L11.0031 64.078C11.0085 62.9906 11.8775 62.1045 12.9646 62.078L16.0227 62.0194C16.5675 62.009 17.0037 61.5643 17.0036 61.0194L17.0036 59.1633C19.447 59.262 21.6356 60.7032 22.6915 62.9089ZM26.3979 59.2109 24.161 61.4427C22.677 58.8722 19.9702 57.251 17.0036 57.1558L17.0036 53.3979 17.0036 51.3422C21.6447 51.5337 25.7435 54.4257 27.48 58.734 27.5117 58.8129 27.575 58.95 27.623 59.054 27.6312 59.0718 27.6239 59.0789 27.6091 59.066 27.5877 59.0468 27.5638 59.0306 27.538 59.0178 27.1555 58.8336 26.6984 58.9111 26.3979 59.2109ZM30.0151 60.019C27.7076 51.1726 20.1816 49.6125 17.0031 49.359L17.0031 46.0023C17.0024 45.2056 17.0967 44.4116 17.284 43.6372 18.7149 43.9457 30.3819 46.8847 34.3459 60.9351 33.4153 60.8525 32.4922 60.7007 31.5842 60.4809 31.06 60.3523 30.5359 60.193 30.0151 60.019ZM57.2983 81.709 58.1259 82.5376C58.6893 83.099 59.005 83.8623 59.0028 84.6576L59.0028 85.0023 54.4174 85.0023 53.0053 83.5883 53.0053 78.9939C53.0132 78.5864 53.7893 78 55.0053 78 56.227 78 57.0063 78.5928 57.0063 79.0005L57.0063 81.0024C57.006 81.2673 57.1111 81.5215 57.2983 81.709ZM57.0058 76.4048C55.7268 75.8654 54.2843 75.8654 53.0053 76.4048L53.0053 68.9929C53.0133 68.5229 53.8497 67.8329 55.0053 67.8329 56.1659 67.8329 57.0063 68.5302 57.0063 69.0004ZM57.0058 66.287C55.7411 65.6812 54.2701 65.681 53.0053 66.2864L53.0053 62.02C53.0053 61.4677 52.5576 61.02 52.0053 61.02L50.034 61.02C50.164 56.5641 50.8092 52.44 51.5302 51.6758 53.1186 52.6734 56.9819 61.1763 57.0058 62.625ZM59.7226 59.6084C59.2429 59.7516 58.7547 59.8645 58.2609 59.9465 57.5424 57.9605 56.6829 56.0284 55.6889 54.165L55.6903 54.165 51.5315 45.3078C51.4141 45.0578 51.1163 44.9504 50.8664 45.0678 50.7262 45.1336 50.6244 45.2608 50.5908 45.412L48.8987 53.032 48.9056 53.032C48.3255 55.6551 48.0311 58.3333 48.0274 61.0198L45.6154 61.0198C45.199 57.8953 44.7603 48.803 50.3012 34.2925 50.5975 34.1299 50.8912 33.9595 51.1806 33.7784 54.5254 47.0546 59.4232 54.4936 62.3617 57.9984 61.607 58.7173 60.7071 59.2663 59.7226 59.6084ZM69.9626 31.7942C67.6735 28.1105 65.9025 24.1292 64.6993 19.9624 65.9872 18.4431 67.5777 17.209 69.3693 16.3389 69.7538 16.1894 70.0071 15.8192 70.007 15.4067L70.007 14.5067C70.0252 13.3256 70.8533 12.3122 72.007 12.059L72.007 14.832C70.2617 19.7944 70.3457 25.2169 72.244 30.1228 71.334 30.4405 70.5395 31.0224 69.9621 31.7942ZM75.6981 32.1421C74.1915 30.8628 71.3801 23.7559 73.5675 16.4871 74.1362 16.7341 74.6554 17.0821 75.1 17.5142L82.4432 24.8593C81.0349 26.9776 80.3198 29.4813 80.3969 32.0239 80.4113 32.3549 80.4452 32.6847 80.4984 33.0117L78.4067 33.0117C77.4387 32.9893 76.4978 32.6873 75.6976 32.1421ZM86.5 33.2051 86.2 33.5051C85.3637 34.3016 84.1539 34.5668 83.0611 34.1932 82.5839 33.5484 82.3483 32.7566 82.3953 31.9558 82.3425 29.9681 82.8601 28.0068 83.8867 26.3039L86.5 28.9175C87.619 30.1277 87.619 31.9949 86.5 33.2051Z"/><path d="M23.0063 80.5884 23.0028 70.002C23.0028 69.4497 22.5551 69.002 22.0028 69.002L22.0028 69.002C21.4505 69.002 21.0028 69.4497 21.0028 70.002 21.0028 70.0022 21.0028 70.0023 21.0028 70.0025L21.0063 81.0025C21.0062 81.2673 21.1114 81.5213 21.2987 81.7086L22.1259 82.5372C22.6893 83.0986 23.005 83.8619 23.0028 84.6572L23.0028 85.0024 21.0028 85.0024C20.4505 85.0024 20.0028 85.4501 20.0028 86.0024 20.0028 86.5547 20.4505 87.0024 21.0028 87.0024L24.0028 87.0024C24.5551 87.0024 25.0028 86.5547 25.0028 86.0024L25.0028 84.6572C25.0065 83.3317 24.4802 82.0598 23.5409 81.1245Z"/><path d="M78.0029 22.5C78.0029 23.3284 77.3313 24 76.5029 24 75.6745 24 75.0029 23.3284 75.0029 22.5 75.0029 21.6716 75.6745 21 76.5029 21 77.3313 21 78.0029 21.6716 78.0029 22.5Z"/></g></svg>