<svg width="96" height="96" xmlns="http://www.w3.org/2000/svg" xmlns:xlink="http://www.w3.org/1999/xlink" overflow="hidden"><defs><clipPath id="clip0"><rect x="0" y="0" width="96" height="96"/></clipPath></defs><g clip-path="url(#clip0)"><path d="M72.48 24.66C72.0719 16.3858 65.0335 10.009 56.7593 10.4171 49.2013 10.7899 43.1045 16.7339 42.54 24.28 42.535 24.3766 42.535 24.4734 42.54 24.57 36.8034 25.8688 31.5636 28.7959 27.45 33 17 43.46 15.45 58.9 24.06 67.49 27.665 70.9863 32.4782 72.9596 37.5 73L37.5 78C36.3954 78 35.5 78.8954 35.5 80 35.5 81.1046 36.3954 82 37.5 82L38.7 82 42.1 85.4C42.8337 86.1732 44.0553 86.2052 44.8285 85.4715 44.853 85.4483 44.8768 85.4245 44.9 85.4 45.6732 84.6663 45.7052 83.4447 44.9715 82.6715 44.9483 82.6471 44.9245 82.6232 44.9 82.6L44.3 82 46.5 82C47.6046 82 48.5 81.1046 48.5 80 48.5 78.8954 47.6046 78 46.5 78L41.5 78 41.5 72.77C42.8528 72.5875 44.1899 72.3034 45.5 71.92L45.5 74C44.3954 74 43.5 74.8954 43.5 76L46.5 76C48.7091 76.0045 50.4964 77.799 50.4919 80.0081 50.4909 80.5195 50.3918 81.0259 50.2 81.5 50.5642 81.809 51.0226 81.9853 51.5 82 52.0275 81.9925 52.5307 81.7768 52.9 81.4 53.6732 80.6663 53.7052 79.4447 52.9715 78.6715 52.9483 78.6471 52.9245 78.6232 52.9 78.6L52.3 78 54.5 78C55.6046 78 56.5 77.1046 56.5 76 56.5 74.8954 55.6046 74 54.5 74L49.5 74 49.5 70.4C52.8473 68.8242 55.8931 66.6752 58.5 64.05 65.7 56.84 68.66 47.26 67 39.2 67.0653 38.3846 66.9632 37.5645 66.7 36.79 69.1315 34.8788 70.9128 32.2627 71.8 29.3L71.85 29.2C73.6791 28.7212 75.5914 28.6529 77.45 29 76.42 27.23 74 25.66 72.48 24.66ZM38.31 54.6C36.8438 54.913 35.3492 55.0739 33.85 55.08 31.1903 55.1803 28.5613 54.4838 26.3 53.08 24.9275 52.2141 23.978 50.8152 23.68 49.22 23.4564 47.3204 24.0654 45.417 25.35 44 25.6979 43.5692 26.3292 43.5021 26.76 43.85 27.1908 44.1979 27.2579 44.8292 26.91 45.26 26.0054 46.2428 25.5523 47.5586 25.66 48.89 25.8677 49.9448 26.5103 50.8633 27.43 51.42 29.76 53.03 33.77 53.49 37.91 52.63 44.06 51.34 48.81 47.43 48.27 44.08 47.79 41.08 44.27 38.35 39.8 37.46 39.2477 37.3495 38.8895 36.8123 39 36.26 39.1105 35.7077 39.6477 35.3495 40.2 35.46 45.5 36.52 49.63 39.92 50.2 43.73 51 48.31 45.73 53.06 38.31 54.6Z"/></g></svg>