<svg width="96" height="96" xmlns="http://www.w3.org/2000/svg" xmlns:xlink="http://www.w3.org/1999/xlink" overflow="hidden"><defs><clipPath id="clip0"><rect x="0" y="0" width="96" height="96"/></clipPath></defs><g clip-path="url(#clip0)"><path d="M78.756 38.177C78.7565 37.4248 78.1472 36.8146 77.395 36.814 76.6428 36.8135 76.0325 37.4228 76.032 38.175 76.0315 38.9272 76.6408 39.5375 77.393 39.538 77.3953 39.538 77.3977 39.538 77.4 39.538 78.1497 39.5352 78.756 38.9267 78.756 38.177Z"/><path d="M27.99 31.611C26.2816 32.4827 24.6389 33.4777 23.075 34.588 14.316 40.835 7.962 50.812 7.962 62.229 7.962 70.291 12.944 76.751 20.669 76.751 25.5938 76.8946 29.7026 73.0186 29.8462 68.0938 29.8474 68.0515 29.8484 68.0093 29.849 67.967 29.8169 64.4642 26.9808 61.6349 23.478 61.611 20.765 61.4974 18.4493 63.5527 18.24 66.26 18.1958 67.0463 18.7973 67.7196 19.5837 67.7638 20.2944 67.8038 20.9258 67.3135 21.063 66.615 21.204 65.4351 22.2444 64.5723 23.43 64.652 25.091 64.652 26.023 65.941 26.023 67.675 26.023 70.05 23.865 72.213 20.616 72.213 17.174 72.213 14.697 69.586 14.697 65.859 14.697 62.229 16.71 54.968 27.022 54.968L29.464 54.968 28.627 58.877C28.2796 60.497 29.3113 62.0919 30.9313 62.4393 31.1379 62.4836 31.3487 62.506 31.56 62.506L42.34 62.506C43.8006 62.5321 45.0775 61.5261 45.394 60.1 45.7221 58.476 44.6714 56.8935 43.0474 56.5654 42.8511 56.5257 42.6513 56.5058 42.451 56.506L35.271 56.506 36.977 48.546C37.1337 48.0699 37.6218 47.7864 38.113 47.886 38.6535 47.9995 38.9997 48.5296 38.8862 49.0701 38.8861 49.0704 38.8861 49.0707 38.886 49.071L37.644 54.971 52.155 54.971 51.317 58.88C50.9696 60.5 52.0013 62.0949 53.6213 62.4423 53.8283 62.4867 54.0393 62.5091 54.251 62.509L65.031 62.509C66.4922 62.534 67.7691 61.5269 68.085 60.1 68.4131 58.4759 67.3624 56.8934 65.7384 56.5654 65.5421 56.5257 65.3423 56.5058 65.142 56.506L57.962 56.506 59.662 48.546C59.8187 48.0699 60.3068 47.7864 60.798 47.886 61.3385 47.9995 61.6847 48.5296 61.5712 49.0701 61.5711 49.0704 61.5711 49.0707 61.571 49.071L60.33 54.971 76.1 54.971C78.9803 54.9711 81.7605 53.9139 83.913 52L84.878 51.142C85.2906 50.7748 85.3273 50.1427 84.9602 49.7302 84.7706 49.5172 84.4991 49.3952 84.214 49.395L75.348 49.395C74.7957 49.395 74.348 48.9473 74.348 48.395 74.348 47.8427 74.7957 47.395 75.348 47.395L86 47.395C87.1046 47.3951 88.0001 46.4997 88.0001 45.3951 88.0001 45.209 87.9742 45.0239 87.923 44.845L86.19 38.78C85.4996 36.364 83.8653 34.3279 81.656 33.131L65.7 24.488C64.9179 24.0661 63.9419 24.358 63.52 25.14 63.394 25.3736 63.3277 25.6346 63.327 25.9L63.327 33.51C58.477 29.785 51.265 27.646 43.499 27.646 39.5432 27.6853 35.6275 28.4423 31.942 29.88 31.672 29.9813 31.403 30.0857 31.135 30.193L30.782 30.339C29.84 30.728 28.905 31.145 27.99 31.611ZM57.438 35.458C57.4696 35.556 57.4668 35.6618 57.43 35.758L55.753 40.258C55.7444 40.2813 55.7337 40.3037 55.721 40.325L53.601 44.025C53.4768 44.2428 53.1995 44.3186 52.9817 44.1944 52.8228 44.1038 52.7338 43.9266 52.756 43.745L53.199 40.023C53.2045 39.9818 53.2045 39.9401 53.199 39.899L52.317 34.284C52.31 34.243 52.2979 34.203 52.281 34.165L51.015 31.4C52.9668 31.7984 54.8741 32.3896 56.709 33.165ZM27.483 40.151 25.6 36.658C25.5786 36.6231 25.5523 36.5915 25.522 36.564 26.7892 35.6954 28.1109 34.9091 29.479 34.21L31.544 43.157C31.6001 43.4014 31.4474 43.645 31.203 43.701 31.0484 43.7365 30.8866 43.6887 30.776 43.575L27.553 40.252C27.525 40.2219 27.5014 40.1878 27.483 40.151ZM42.331 43.685C42.2964 43.9333 42.067 44.1066 41.8186 44.0719 41.6611 44.05 41.5266 43.9472 41.464 43.801L39.641 39.546C39.6241 39.5079 39.613 39.4674 39.608 39.426L39.1 35.492C39.0921 35.4313 39.072 35.3728 39.041 35.32L36.79 31.485C38.7463 31.0047 40.7476 30.7312 42.761 30.669L43.734 33.196C43.762 33.2675 43.7709 33.345 43.76 33.421ZM72.857 38.177C72.857 35.9215 74.6855 34.093 76.941 34.093 79.1965 34.093 81.025 35.9215 81.025 38.177 81.025 40.4325 79.1965 42.261 76.941 42.261 74.686 42.2616 72.8576 40.434 72.857 38.179 72.857 38.1783 72.857 38.1777 72.857 38.177Z"/></g></svg>