<svg width="96" height="96" xmlns="http://www.w3.org/2000/svg" xmlns:xlink="http://www.w3.org/1999/xlink" overflow="hidden"><defs><clipPath id="clip0"><rect x="0" y="0" width="96" height="96"/></clipPath></defs><g clip-path="url(#clip0)"><path d="M85.38 36.38 77.46 28.46C76.5254 27.5278 75.2601 27.0029 73.94 27L73.33 27 72.89 25.51C72.5255 24.2701 73.2351 22.9695 74.475 22.605 74.6909 22.5415 74.9149 22.5095 75.14 22.51L82 22.51C82.8284 22.51 83.5 21.8384 83.5 21.01 83.5 20.1816 82.8284 19.51 82 19.51L75.14 19.51C73.6007 19.5141 72.1399 20.1898 71.14 21.36 71.1149 20.9637 71.1149 20.5663 71.14 20.17 71.7209 15.3364 75.6186 11.5765 80.47 11.17L81.65 11C82.4784 10.9172 83.0828 10.1784 83 9.35 82.9172 8.52157 82.1784 7.91716 81.35 8L80.16 8.12C73.8716 8.67776 68.85 13.5947 68.16 19.87 67.9311 22.3231 68.3881 24.7915 69.48 27L64 27 68 31 60.8 39.8C59.6611 41.1916 57.9582 41.999 56.16 42L19 42C15.6863 42 13 44.6863 13 48L13 58 17 56.2 17 63C17.0007 61.3431 15.6582 59.9994 14.0014 59.9986 13.9709 59.9986 13.9404 59.9991 13.91 60 12.264 60.0909 10.9814 61.4616 11 63.11L11 85C11 86.6569 12.3431 88 14 88 15.6569 88 17 86.6569 17 85L17 68.79C18.5534 69.6897 20.5159 69.4444 21.8 68.19L28.1 61.89C30.8693 63.2563 33.9121 63.9776 37 64L50 64 50 85C49.9647 86.6233 51.2521 87.9679 52.8754 88.0032 52.947 88.0047 53.0185 88.0037 53.09 88 54.7422 87.914 56.0292 86.5342 56 84.88L56 64C57.3611 63.9706 58.7098 63.7346 60 63.3L60 85C59.9647 86.6233 61.2521 87.9679 62.8754 88.0032 62.947 88.0047 63.0185 88.0037 63.09 88 64.7422 87.914 66.0292 86.5342 66 84.88L66 61.59 69.47 59.05C70.6735 58.1724 71.5076 56.8785 71.81 55.42L75 40 83.88 40C85.0508 40.001 86.0008 39.0527 86.0019 37.8819 86.0024 37.3185 85.7786 36.7781 85.38 36.38Z"/><path d="M23.21 69.59C22.5792 70.2084 21.8266 70.6886 21 71L21 85C21 86.6569 22.3431 88 24 88 25.6569 88 27 86.6569 27 85L27 68.79C28.5534 69.6897 30.5159 69.4444 31.8 68.19L34.2 65.79C32.2365 65.5734 30.3158 65.0679 28.5 64.29Z"/></g></svg>