<svg width="96" height="96" xmlns="http://www.w3.org/2000/svg" xmlns:xlink="http://www.w3.org/1999/xlink" overflow="hidden"><defs><clipPath id="clip0"><rect x="0" y="0" width="96" height="96"/></clipPath></defs><g clip-path="url(#clip0)"><path d="M84.6 51.6 79.5 42.9C77.7 39.9 74.8 37.9 71.5 37.2 71.8 34.1 71.3 30.4 70.1 26.6 67.2 18.3 57.4 14 57.4 14 57.4 14 56.3 16 55.3 19 58.4 20.7 61.7 23.2 63.9 26.9 65.9 30.4 67.2 33.9 67.6 37L65.5 37C65 34.2 63.9 31 62.1 27.9 57.7 20.2 47.2 18 47.2 18 47.2 18 43.9 28.2 48.3 35.9 48.8 36.8 49.4 37.7 50 38.6 47.3 37.6 44.5 37.1 41.5 37.1 32 37.1 23.8 42.5 19.8 50.3 19.2 50.1 18.6 50 18 50 13.6 50 10 53.6 10 58 10 62.2 13.3 65.7 17.4 66 18.6 72.7 22.6 78.4 28.1 82L49 82C50.7 82 52 80.7 52 79 52 77.3 50.7 76 49 76L39.9 76C44.9 74.5 48.5 69.9 48.5 64.5 48.5 57.9 43.1 52.5 36.5 52.5 35.4 52.5 34.4 52.6 33.4 52.9 32.6 53.1 31.8 52.6 31.6 51.8 31.4 51 31.9 50.2 32.7 50 34 49.7 35.3 49.5 36.6 49.5 44.9 49.5 51.6 56.2 51.6 64.5 51.6 68.1 50.3 71.4 48.2 74 50.1 74 52.2 72.9 54.4 71.4L56.2 79.6C56.4 81 57.6 82 59 82 59.2 82 59.4 82 59.6 81.9 60.9 81.6 61.8 80.5 61.9 79.2L62 79.6C62.4 81 63.6 82 65 82 65.2 82 65.4 82 65.6 81.9 67.2 81.5 68.2 79.9 67.9 78.3L64.8 63.9C66.9 62.8 68.9 62 71 62 74.3 62 77.6 61.6 80.8 60.8 82.8 60.3 84.4 58.8 85 56.9L85.1 56.6C85.7 54.9 85.5 53.1 84.6 51.6Z"/></g></svg>